<svg height="512pt" viewBox="0 0 512 512" width="512pt" xmlns="http://www.w3.org/2000/svg"><path d="m512 256c0 141.386719-114.613281 256-256 256s-256-114.613281-256-256 114.613281-256 256-256 256 114.613281 256 256zm0 0" fill="#b2ed69"/><path d="m504.683594 316.933594-147.585938-147.585938-51.394531 98.488282-98.488281-98.488282-84.585938 164.769532 174.566406 174.566406c101.714844-16.457032 183.332032-92.832032 207.488282-191.75zm0 0" fill="#94e027"/><path d="m68.640625 223.363281c0-44.082031 35.734375-79.816406 79.820313-79.816406 34.402343 0 63.726562 21.769531 74.9375 52.285156 11.214843-30.515625 40.535156-52.285156 74.941406-52.285156 44.085937 0 79.820312 35.734375 79.820312 79.816406 0 115.824219-154.761718 176.949219-154.761718 176.949219s-154.757813-63.636719-154.757813-176.949219zm0 0" fill="#fc5557"/><path d="m298.339844 143.546875c-34.40625 0-63.726563 21.769531-74.941406 52.285156v204.484375s154.761718-61.125 154.761718-176.953125c0-44.082031-35.734375-79.816406-79.820312-79.816406zm0 0" fill="#e21e28"/><path d="m421.71875 332.082031c0 52.113281-42.246094 94.359375-94.359375 94.359375s-94.359375-42.246094-94.359375-94.359375 42.246094-94.359375 94.359375-94.359375 94.359375 42.246094 94.359375 94.359375zm0 0" fill="#fff"/><path d="m327.359375 237.722656c-.007813 0-.015625 0-.027344 0v188.71875h.027344c52.113281 0 94.359375-42.246094 94.359375-94.359375s-42.246094-94.359375-94.359375-94.359375zm0 0" fill="#e9edf5"/><path d="m384.941406 312.582031h-38.082031v-38.082031h-39v38.082031h-38.082031v39h38.082031v38.082031h39v-38.082031h38.082031zm0 0" fill="#fb2"/><path d="m346.859375 312.582031v-38.082031h-19.527344v115.164062h19.527344v-38.082031h38.082031v-39zm0 0" fill="#ffa300"/></svg>